<?xml version="1.0" encoding="UTF-8" standalone="no"?>
<!-- Created with Inkscape (http://www.inkscape.org/) -->

<svg
   width="48"
   height="48"
   viewBox="0 0 12.7 12.7"
   version="1.1"
   id="svg5"
   inkscape:version="1.1.1 (3bf5ae0d25, 2021-09-20)"
   sodipodi:docname="logo.svg"
   inkscape:export-filename="C:\Users\jianh\點陣圖.png"
   inkscape:export-xdpi="96"
   inkscape:export-ydpi="96"
   xmlns:inkscape="http://www.inkscape.org/namespaces/inkscape"
   xmlns:sodipodi="http://sodipodi.sourceforge.net/DTD/sodipodi-0.dtd"
   xmlns="http://www.w3.org/2000/svg"
   xmlns:svg="http://www.w3.org/2000/svg">
  <sodipodi:namedview
     id="namedview7"
     pagecolor="#ffffff"
     bordercolor="#666666"
     borderopacity="1.0"
     inkscape:pageshadow="2"
     inkscape:pageopacity="0.0"
     inkscape:pagecheckerboard="0"
     inkscape:document-units="mm"
     showgrid="false"
     inkscape:zoom="2.0535659"
     inkscape:cx="290.71383"
     inkscape:cy="158.2613"
     inkscape:window-width="2400"
     inkscape:window-height="1271"
     inkscape:window-x="0"
     inkscape:window-y="0"
     inkscape:window-maximized="0"
     inkscape:current-layer="layer1"
     inkscape:object-nodes="false"
     units="px" />
  <defs
     id="defs2" />
  <g
     inkscape:label="圖層 1"
     inkscape:groupmode="layer"
     id="layer1">
    <path
       id="path10431"
       style="opacity:1;fill:#f41f23;fill-opacity:1;stroke-width:0.0372345"
       d="M 4.7869721,7.077572 A 1.7766151,1.7091252 0.48170697 0 1 3.3106466,7.8254823 1.7766151,1.7091252 0.48170697 0 1 1.9142271,7.1467295 4.6632709,4.6632709 0 0 0 6.188339,10.728009 a 1.514306,1.4567808 0.48170697 0 0 0.1281504,0.0068 1.514306,1.4567808 0.48170697 0 0 0.035,-8.93e-4 4.6632709,4.6632709 0 0 0 0.060422,0.0021 l -1.8e-6,-0.0038 A 1.514306,1.4567808 0.48170697 0 0 7.8429747,9.2908314 1.514306,1.4567808 0.48170697 0 0 6.4603858,7.8270025 l 5.23e-5,-0.0091 A 2.3096351,2.3096351 0 0 1 4.7869143,7.077636 Z" />
    <path
       id="path3829"
       style="opacity:1;fill:#1ff4bb;fill-opacity:1;stroke-width:0.0372345"
       d="m 7.4542911,7.7682285 a 1.7091252,1.7766151 0.63568838 0 1 0.7439381,1.4783292 1.7091252,1.7766151 0.63568838 0 1 -0.6824994,1.3945883 4.6632709,4.6632709 0 0 0 3.5927522,-4.2644711 1.4567808,1.514306 0.63568838 0 0 0.0071,-0.1281296 1.4567808,1.514306 0.63568838 0 0 -8.93e-4,-0.035002 4.6632709,4.6632709 0 0 0 0.0024,-0.060415 l -0.0038,-2.977e-4 A 1.4567808,1.514306 0.63568838 0 0 9.6756751,4.718099 1.4567808,1.514306 0.63568838 0 0 8.2081381,6.0967469 L 8.1990481,6.096598 A 2.3096351,2.3096351 0 0 1 7.4542776,7.7681243 Z" />
    <path
       id="path3831"
       style="opacity:1;fill:#1f89f4;fill-opacity:1;stroke-width:0.0372345"
       d="M 8.1429229,5.106387 A 1.7091252,1.7766151 89.620258 0 1 9.6078353,4.3363681 1.7091252,1.7766151 89.620258 0 1 11.0143,4.9940471 4.6632709,4.6632709 0 0 0 6.6868295,1.477433 1.4567808,1.514306 89.620258 0 0 6.5585943,1.472581 1.4567808,1.514306 89.620258 0 0 6.5236153,1.474089 4.6632709,4.6632709 0 0 0 6.4631663,1.472838 l -4.11e-5,0.0038 A 1.4567808,1.514306 89.620258 0 0 5.0538928,2.9393829 1.4567808,1.514306 89.620258 0 0 6.458332,4.3822572 l 6.82e-5,0.0091 A 2.3096351,2.3096351 0 0 1 8.1428604,5.106381 Z" />
    <path
       id="path3999"
       style="opacity:1;fill:#f4cb1f;fill-opacity:1;stroke-width:0.0372345"
       d="M 5.4888088,4.4212036 A 1.7091252,1.7766151 1.0286659 0 1 4.7550282,2.9378077 1.7091252,1.7766151 1.0286659 0 1 5.4470783,1.5479326 4.6632709,4.6632709 0 0 0 1.8251615,5.7876605 a 1.4567808,1.514306 1.0286659 0 0 -0.008,0.1280789 1.4567808,1.514306 1.0286659 0 0 6.551e-4,0.035005 4.6632709,4.6632709 0 0 0 -0.00273,0.0604 l 0.00379,9.38e-5 A 1.4567808,1.514306 1.0286659 0 0 3.2465422,7.4559589 1.4567808,1.514306 1.0286659 0 0 4.7235005,6.0874086 l 0.00909,9.38e-5 A 2.3096351,2.3096351 0 0 1 5.4888084,4.4212259 Z" />
  </g>
</svg>
